Coordinates
version=1
nRows=27
nColumns=12
inDegrees=yes

Units are S.I. units (second, meters, Newtons, ...)
Angles are in degrees

endheader
time	SC_y	SC_z	SC_x	AC_y	AC_z	AC_x	GH_y	GH_z	GH_yy	EL_x	PS_y
       0.0               -24.2          19.03            4.2          65.82         -15.07          4.305          165.9          12.08          56.48          85.29          129.9
   0.03417               -24.2          19.03            4.2          65.82         -15.07          4.304          165.9          12.08          56.48          85.28          129.9
   0.06834               -24.2          19.04          4.199          65.81         -15.06          4.304          165.8          12.07          56.49          85.28          129.9
    0.1025               -24.2          19.04          4.198          65.81         -15.06          4.303          165.8          12.07          56.49          85.27          129.9
    0.1367               -24.2          19.04          4.198           65.8         -15.06          4.303          165.7          12.07           56.5          85.27          129.9
    0.1709               -24.2          19.04          4.197          65.79         -15.06          4.302          165.7          12.06           56.5          85.26          129.9
     0.205               -24.2          19.04          4.197          65.79         -15.06          4.302          165.6          12.06          56.51          85.26          129.9
    0.2392               -24.2          19.04          4.196          65.78         -15.06          4.301          165.6          12.05          56.52          85.25          129.8
    0.2734               -24.2          19.04          4.195          65.77         -15.06            4.3          165.5          12.05          56.52          85.25          129.8
    0.3075               -24.2          19.04          4.194          65.77         -15.06            4.3          165.4          12.04          56.53          85.24          129.8
    0.3417               -24.2          19.04          4.194          65.76         -15.05          4.299          165.3          12.04          56.54          85.23          129.8
    0.3759               -24.2          19.04          4.193          65.75         -15.05          4.298          165.2          12.03          56.55          85.22          129.8
      0.41               -24.2          19.05          4.192          65.74         -15.05          4.297          165.1          12.02          56.56          85.22          129.8
    0.4442               -24.2          19.05          4.191          65.73         -15.05          4.296          165.0          12.02          56.57          85.21          129.8
    0.4784               -24.2          19.05           4.19          65.72         -15.05          4.295          164.9          12.01          56.58           85.2          129.8
    0.5126               -24.2          19.05          4.188          65.71         -15.04          4.294          164.8           12.0          56.59          85.19          129.8
    0.5467               -24.2          19.05          4.187           65.7         -15.04          4.293          164.7          11.99           56.6          85.18          129.7
    0.5809               -24.2          19.05          4.185          65.68         -15.04          4.291          164.5          11.98          56.61          85.16          129.7
    0.6151              -24.19          19.06          4.184          65.67         -15.04           4.29          164.4          11.97          56.63          85.15          129.7
    0.6492              -24.19          19.06          4.182          65.65         -15.03          4.288          164.2          11.96          56.65          85.13          129.7
    0.6834              -24.19          19.06           4.18          65.63         -15.03          4.287          164.0          11.94          56.66          85.12          129.7
    0.7176              -24.19          19.07          4.178          65.61         -15.02          4.285          163.8          11.93          56.68           85.1          129.6
    0.7518              -24.19          19.07          4.176          65.59         -15.02          4.283          163.6          11.91          56.71          85.08          129.6
    0.7859              -24.19          19.07          4.173          65.56         -15.01           4.28          163.3          11.89          56.73          85.06          129.6
    0.8201              -24.19          19.08           4.17          65.54         -15.01          4.278          163.0          11.87          56.76          85.03          129.6
    0.8543              -24.19          19.08          4.167          65.51          -15.0          4.275          162.7          11.85          56.79          85.01          129.5
    0.8884              -24.19          19.09          4.163          65.47         -14.99          4.271          162.4          11.82          56.82          84.98          129.5
